# xmcd CD database file
#
# Track frame offsets:
#	197
#	13765
#	28337
#	44092
#	62730
#	77492
#	90772
#	108500
#	124962
#	138137
#
# Disc length: 1997 seconds
#
# Revision: 0
# Processed by: cddbd v1.4PL0 Copyright (c) Steve Scherf et al.
# Submitted via: CDex 1.50Beta7
#
DISCID=7f07cb0a
DTITLE=Various Artist - Gulf Coast Blues, Volume One
DYEAR=1990
DGENRE=Blues
TTITLE0=Everyday is Not the Same - Carol Fran and Clarence Hollimon
TTITLE1=Emmitt Lee - Carol Fran and Clarence Hollimon
TTITLE2=Miss Too Fine - Joe ''Guitar'' Hughes
TTITLE3=Apron Strings - Joe ''Guitar'' Hughes
TTITLE4=Lonesome Saxophone, part 1 - Grady Gaines
TTITLE5=Lonesome Saxophone, part 2 - Grady Gaines
TTITLE6=Young Girl's Got a Lot of Patience - Teddy Reynolds
TTITLE7=I Work Five Days a Week - Teddy Reynolds
TTITLE8=I Don't Want Your Money - Teddy Reynolds
TTITLE9=Texas Son - Teddy Reynolds
EXTD=YEAR: 1990
EXTT0=
EXTT1=
EXTT2=
EXTT3=
EXTT4=
EXTT5=
EXTT6=
EXTT7=
EXTT8=
EXTT9=
PLAYORDER=
